<?xml version="1.0" encoding="UTF-8"?>
<svg id="_圖層_1" data-name="圖層_1" xmlns="http://www.w3.org/2000/svg" version="1.1" viewBox="0 0 108.18 20.68">
  <!-- Generator: Adobe Illustrator 29.7.1, SVG Export Plug-In . SVG Version: 2.1.1 Build 8)  -->
  <defs>
    <style>
      .st0 {
        fill: #0866ff;
      }
    </style>
  </defs>
  <path class="st0" d="M36.74,14.22v-1.17c0-3.77,2.18-6.26,6.62-6.26,4.19,0,6.02,2.52,6.02,6.21v2.12h-8.57c.08,1.81.91,2.62,3.17,2.62,1.48,0,2.95-.27,4.33-.81l.74,2.77c-1.66.67-3.45,1.01-5.24.98-5.15,0-7.08-2.55-7.08-6.46ZM40.82,12.5h4.92v-.34c0-1.46-.59-2.6-2.38-2.6-1.84,0-2.54,1.15-2.54,2.93h0ZM54.94,18.37v2.01h-3.85V.39L55.17.03v8.89c.75-1.38,2.22-2.21,3.79-2.12,3.74,0,5.55,2.8,5.54,6.52v.84c0,3.72-1.8,6.51-5.53,6.51-1.68.12-3.27-.79-4.02-2.29ZM55.17,13.03v1.4c0,1.91.91,3.08,2.57,3.08,1.95,0,2.69-1.4,2.69-3.27v-1.01c0-1.87-.74-3.27-2.69-3.27-1.67,0-2.57,1.17-2.57,3.07ZM10.48,14.15v-.85c0-3.72,1.8-6.51,5.54-6.51,1.65-.1,3.19.83,3.88,2.33v-2.04h3.91v13.31h-3.91v-2.01c-.69,1.5-2.24,2.41-3.88,2.29-3.75,0-5.54-2.8-5.54-6.51ZM14.58,13.25v.95c0,1.99.72,3.3,2.62,3.3,1.67,0,2.52-1.2,2.52-3.1v-1.34c0-1.9-.85-3.1-2.52-3.1-1.88,0-2.62,1.31-2.62,3.3h0ZM80.65,14.06v-.67c0-3.83,2.2-6.6,6.7-6.6s6.71,2.77,6.7,6.6v.67c0,3.83-2.21,6.6-6.7,6.6s-6.7-2.77-6.7-6.6h0ZM84.72,13.11v1.23c0,1.76.74,3.16,2.62,3.16s2.62-1.41,2.62-3.16v-1.23c0-1.76-.74-3.16-2.62-3.16s-2.62,1.41-2.62,3.16h0ZM65.87,14.06v-.67c0-3.83,2.2-6.6,6.7-6.6s6.71,2.77,6.7,6.6v.67c0,3.83-2.21,6.6-6.7,6.6s-6.7-2.77-6.7-6.6h0ZM69.95,13.11v1.23c0,1.76.74,3.16,2.62,3.16s2.62-1.41,2.62-3.16v-1.23c0-1.76-.74-3.16-2.62-3.16s-2.62,1.41-2.62,3.16h0ZM25.33,14.03v-.61c0-4.08,2.18-6.62,6.96-6.62,1.36-.06,2.71.25,3.91.9l-.91,2.85c-.85-.4-1.78-.61-2.71-.61-2.21,0-3.17,1.26-3.17,3.41v.78c0,2.15.96,3.41,3.17,3.41.94,0,1.87-.22,2.71-.61l.91,2.85c-1.2.65-2.55.95-3.91.89-4.78,0-6.96-2.55-6.96-6.62h0ZM103.85,20.37l-4.19-6.51v6.51h-4.08V.39l4.08-.36v13.39l4.02-6.35h4.33l-4.22,6.57,4.39,6.73h-4.33ZM2.75,20.37v-10.01H0v-3.28h2.75v-1.98C2.75,1.77,4.1,0,7.9,0c.79,0,1.59.04,2.38.14v3.1h-1.81c-1.27,0-1.64.56-1.64,1.79v2.04h3.4l-.34,3.3h-3.06v10.01H2.75Z"/>
</svg>