<?xml version="1.0" encoding="UTF-8"?>
<svg id="google" xmlns="http://www.w3.org/2000/svg" version="1.1" viewBox="0 0 94.22 31.01">
  <!-- Generator: Adobe Illustrator 29.7.1, SVG Export Plug-In . SVG Version: 2.1.1 Build 8)  -->
  <defs>
    <style>
      .st0 {
        fill: #4285f4;
      }

      .st1 {
        fill: #e94235;
      }

      .st2 {
        fill: #34a853;
      }

      .st3 {
        fill: #fabb05;
      }
    </style>
  </defs>
  <path class="st1" d="M32.54,8.57c-.09,0-.17,0-.26,0-4.22.06-7.58,3.53-7.52,7.75h0c0,.07,0,.14,0,.21.06,4.23,3.54,7.6,7.77,7.54.07,0,.14,0,.21,0,4.23-.05,7.61-3.52,7.56-7.75,0-.09,0-.17,0-.26-.08-4.22-3.56-7.57-7.78-7.49ZM32.54,21.02s-.08,0-.12,0c-2.47-.12-4.38-2.22-4.26-4.7h0s0-.09,0-.14c-.05-2.47,1.91-4.51,4.37-4.56.05,0,.1,0,.15,0,2.46.13,4.35,2.23,4.22,4.69,0,.04,0,.08,0,.11.06,2.47-1.9,4.53-4.38,4.59Z"/>
  <path class="st0" d="M12.2,11.02v3.29h7.86c-.12,1.52-.75,2.95-1.78,4.07-1.6,1.63-3.8,2.5-6.08,2.41-.04,0-.08,0-.11,0-4.77-.06-8.58-3.98-8.52-8.74,0-.04,0-.08,0-.11C3.57,7.16,7.44,3.29,12.2,3.29c2.21-.03,4.34.81,5.93,2.35l2.32-2.32C18.26,1.15,15.29-.05,12.21,0,5.53,0,.09,5.36,0,12.04H0c.09,6.67,5.53,12.03,12.21,12.03,3.15.13,6.21-1.1,8.39-3.37,1.92-2.09,2.94-4.85,2.85-7.69,0-.66-.05-1.33-.17-1.98h-11.08Z"/>
  <polygon class="st2" points="75.17 23.6 78.49 23.59 78.49 .89 75.17 .89 75.17 23.6"/>
  <path class="st1" d="M87.61,21.02c-1.62.06-3.1-.87-3.76-2.35l10.36-4.29-.35-.88c-.95-2.88-3.6-4.85-6.63-4.93-3.99,0-7.31,3.14-7.31,7.75h0c0,.09,0,.18,0,.27.06,4.19,3.5,7.53,7.69,7.47,2.59.01,5.02-1.28,6.46-3.43l-2.64-1.76c-.8,1.34-2.25,2.15-3.82,2.15ZM83.3,16.01c-.11-2.34,1.7-4.33,4.05-4.44,1.2-.08,2.33.57,2.88,1.64l-6.93,2.88h0s0-.05,0-.08Z"/>
  <path class="st0" d="M69.93,10.3h-.12c-1.05-1.14-2.53-1.77-4.08-1.73-4.18.15-7.47,3.6-7.43,7.78-.03,4.16,3.27,7.59,7.43,7.72,1.55.04,3.05-.6,4.08-1.76h.12v1.11c0,2.97-1.58,4.54-4.14,4.54-1.74-.04-3.28-1.13-3.9-2.75l-2.96,1.23c1.15,2.78,3.86,4.58,6.86,4.57,3.99,0,7.37-2.34,7.37-8.06v-13.91h-3.23v1.26ZM66.04,21.02s-.06,0-.09,0c-2.45-.12-4.34-2.21-4.22-4.66h0s0-.06,0-.09c-.09-2.47,1.85-4.55,4.32-4.64,2.32,0,4.14,1.99,4.14,4.73s-1.82,4.67-4.14,4.67Z"/>
  <path class="st3" d="M49.32,8.57c-.08,0-.17,0-.25,0-4.22.06-7.58,3.53-7.52,7.75h0c0,.07,0,.14,0,.21.07,4.23,3.55,7.6,7.78,7.54.07,0,.14,0,.22,0,4.23-.05,7.61-3.52,7.56-7.75,0-.09,0-.17,0-.26-.08-4.22-3.56-7.57-7.78-7.49ZM49.32,21.02s-.08,0-.12,0c-2.47-.12-4.37-2.23-4.25-4.7h0s0-.1,0-.15c-.05-2.46,1.91-4.5,4.37-4.55.05,0,.1,0,.15,0,2.46.13,4.35,2.23,4.22,4.69,0,.04,0,.08,0,.11.06,2.48-1.9,4.53-4.38,4.59Z"/>
</svg>