<?xml version="1.0" encoding="UTF-8"?>
<svg id="_圖層_1" data-name="圖層_1" xmlns="http://www.w3.org/2000/svg" version="1.1" viewBox="0 0 24 24">
  <!-- Generator: Adobe Illustrator 29.7.1, SVG Export Plug-In . SVG Version: 2.1.1 Build 8)  -->
  <defs>
    <style>
      .st0 {
        fill: none;
      }

      .st1 {
        fill: #3f5d45;
      }
    </style>
  </defs>
  <path class="st0" d="M0,0h24v24H0V0Z"/>
  <path class="st1" d="M16.5,3c-1.74,0-3.41.81-4.5,2.09-1.09-1.28-2.76-2.09-4.5-2.09-3.08,0-5.5,2.42-5.5,5.5,0,3.78,3.4,6.86,8.55,11.54l1.45,1.31,1.45-1.32c5.15-4.67,8.55-7.75,8.55-11.53,0-3.08-2.42-5.5-5.5-5.5ZM12.1,18.55l-.1.1-.1-.1c-4.76-4.31-7.9-7.16-7.9-10.05,0-2,1.5-3.5,3.5-3.5,1.54,0,3.04.99,3.57,2.36h1.87c.52-1.37,2.02-2.36,3.56-2.36,2,0,3.5,1.5,3.5,3.5,0,2.89-3.14,5.74-7.9,10.05Z"/>
</svg>