<?xml version="1.0" encoding="UTF-8"?>
<svg id="_圖層_1" data-name="圖層_1" xmlns="http://www.w3.org/2000/svg" version="1.1" viewBox="0 0 24 24">
  <!-- Generator: Adobe Illustrator 29.7.1, SVG Export Plug-In . SVG Version: 2.1.1 Build 8)  -->
  <defs>
    <style>
      .st0 {
        fill: #3f5d45;
      }
    </style>
  </defs>
  <path class="st0" d="M7,18c-1.1,0-1.99.9-1.99,2s.89,2,1.99,2,2-.9,2-2-.9-2-2-2ZM1,2v2h2l3.6,7.59-1.35,2.45c-.16.28-.25.61-.25.96,0,1.1.9,2,2,2h12v-2H7.42c-.14,0-.25-.11-.25-.25l.03-.12.9-1.63h7.45c.75,0,1.41-.41,1.75-1.03l3.58-6.49c.08-.14.12-.31.12-.48,0-.55-.45-1-1-1H5.21l-.94-2s-3.27,0-3.27,0ZM17,18c-1.1,0-1.99.9-1.99,2s.89,2,1.99,2,2-.9,2-2-.9-2-2-2Z"/>
</svg>