<?xml version="1.0" encoding="UTF-8"?>
<svg id="yahoo" xmlns="http://www.w3.org/2000/svg" version="1.1" viewBox="0 0 96.52 22.4">
  <!-- Generator: Adobe Illustrator 29.7.1, SVG Export Plug-In . SVG Version: 2.1.1 Build 8)  -->
  <defs>
    <style>
      .st0 {
        fill: #5f01d1;
      }
    </style>
  </defs>
  <path class="st0" d="M90.52,21.04c-.06-.75.5-1.4,1.25-1.46.05,0,.09,0,.14,0,.77-.08,1.46.47,1.54,1.24,0,.05,0,.09,0,.14.08.71-.43,1.36-1.15,1.44-.06,0-.13,0-.19,0-.88,0-1.6-.46-1.6-1.35ZM10.26,22.33c-.47-.08-.94-.13-1.41-.14-.47.02-.95.06-1.42.14h0s-.01,0-.01,0l.18-9.49C6.29,10.57,2.42,3.64,0,0h.01S0,0,0,0C.97.27,1.99.27,2.95,0h-.01S2.96,0,2.96,0c1.54,2.72,3.9,6.53,5.89,9.84C10.81,6.61,13.9,1.57,14.74,0h0c.97.24,1.99.24,2.96,0h0c-1.12,1.53-5.16,8.54-7.62,12.84h0l.18,9.48ZM67.99,11.16c0-6.57,4.76-10.1,10.98-10.1,7,0,11.06,4.15,11.06,10.2,0,6.42-4.35,10.08-11.01,10.08-7.87,0-11.03-4.77-11.03-10.18ZM70.94,11.12c0,6.68,3.84,9.15,8.05,9.15,3.94,0,8.11-2.21,8.11-9.01,0-6.26-3.44-9.1-8.12-9.1-3.79,0-8.05,2.05-8.05,8.97h0ZM47.87,11.22c0-5.14,3.28-9.1,9.53-9.1,5.8,0,9.55,3.44,9.55,9.16,0,5.13-3.13,8.99-9.56,8.99-5.94,0-9.52-3.43-9.52-9.05h0ZM50.8,11.25c0,5.03,2.45,8.02,6.61,8.02,3.82,0,6.62-2.6,6.62-8.04s-2.81-8.04-6.63-8.04h-.17c-3.43.07-6.44,2.36-6.44,8.06h0ZM27.71,20.04h0c-.67-1.73-1.36-3.46-2.05-5.19-2.41-.08-4.83-.07-7.24,0h0c-.71,1.81-1.43,3.6-2.06,5.18h-.02s.02,0,.02,0c-.95-.24-1.95-.24-2.9,0h.02s-.04,0-.04,0c2.46-5.01,5.19-11.73,7.56-17.68h0c.66.25,1.39.25,2.05,0h-.01s.02,0,.02,0c2.26,5.72,5.82,14.37,7.59,17.68h0,0c-.96-.24-1.97-.24-2.94,0h0ZM25.17,13.62c-1.09-2.75-2.16-5.49-3.14-8.21-.64,1.85-1.85,4.97-3.13,8.21,2.09.07,4.18.07,6.27,0h0ZM13.44,20.04s0,0,.01,0h-.01ZM44.08,20.04h0-.01c.14-2.74.22-5.48.23-8.22-3.29-.04-6.59-.04-9.88,0h0c.01,2.74.09,5.48.23,8.22h-.01,0c-.97-.24-1.98-.24-2.94,0,.24-5.88.26-11.77,0-17.68.97.24,1.98.24,2.95,0h0c-.14,2.75-.22,5.5-.23,8.25h0c3.29.08,6.58.08,9.88,0,0-2.75-.08-5.5-.23-8.25.97.24,1.98.24,2.95,0-.26,5.9-.23,11.79,0,17.68-.96-.24-1.97-.24-2.94,0h0ZM92.03,17.44h-.04s0,0,0,0h0c.72-5.08,1.15-10.41,1.58-15.73-.08-.74.46-1.39,1.19-1.47.07,0,.14,0,.21,0,.1,0,.2.01.3.03h0c.71.05,1.25.65,1.23,1.36-.03.31-.09.63-.18.93-.5,2.19-2.43,9.91-3.25,15.07h0c-.33-.16-.69-.22-1.05-.18h0Z"/>
</svg>